<svg xmlns="http://www.w3.org/2000/svg" xmlns:xlink="http://www.w3.org/1999/xlink"><symbol id="service-beard" viewBox="0 0 22.1 21.2"><title>beard-icon</title><path d="M21.8 0h-.1c-1 3.3-1.3 7.3-4 8.8-.5-1.4-1.8-2.1-3.2-2.7A9.5 9.5 0 0 0 11.7 5a.9.9 0 0 0-.6.1.9.9 0 0 0-.7-.1 9.5 9.5 0 0 0-2.8 1.1c-1.4.6-2.7 1.3-3.2 2.7C1.6 7.3 1.3 3.3.4 0H.3A6.3 6.3 0 0 0 0 1a110.5 110.5 0 0 0 .8 12.2c.5 2.7 2.6 4.6 4.6 5.9S9 21.2 11 21.2s4.2-1.2 5.6-2.1 4.1-3.2 4.6-5.9A110.3 110.3 0 0 0 22.1 1a6.1 6.1 0 0 0-.3-1zm-6 12a1.8 1.8 0 0 1-1.4 1.5c-1.3.1-1.9-1.9-3.4-1.9s-2.1 1.9-3.4 1.9A1.8 1.8 0 0 1 6.2 12a3.2 3.2 0 0 1 .7-2.4 3.5 3.5 0 0 1 2-.5 3.7 3.7 0 0 0 2.1-.8 3.7 3.7 0 0 0 2.1.8 3.5 3.5 0 0 1 2 .5 3.2 3.2 0 0 1 .7 2.4z" fill="#826550"/></symbol><symbol id="service-mustache" viewBox="0 0 45 12.9"><title>mustache-icon</title><path d="M22.5 8.2a10.5 10.5 0 0 0 8.8 4.7c7.1.3 13.7-5.2 13.7-7.3-2.8 2.5-7.4 2.7-10 1.7S31.9 2.8 29.2.9a5.1 5.1 0 0 0-5.7 0l-1 .8-1-.8a5.1 5.1 0 0 0-5.7 0c-2.8 2-2.1 4.9-5.9 6.4S2.8 8.1 0 5.6c0 2.1 6.5 7.6 13.7 7.3a10.5 10.5 0 0 0 8.8-4.7z" fill="#826550"/></symbol><symbol id="service-scissors" viewBox="0 0 21 20"><title>scissors-icon</title><path d="M8 4a4 4 0 1 0-4 4 2.9 2.9 0 0 0 1.6-.4L8 10l-2.4 2.4A2.9 2.9 0 0 0 4 12a4 4 0 1 0 4 4 2.9 2.9 0 0 0-.4-1.6L10 12l7 7h4L7.6 5.6A2.9 2.9 0 0 0 8 4zM4 6a2 2 0 1 1 2-2 2 2 0 0 1-2 2zm0 12a2 2 0 1 1 2-2 2 2 0 0 1-2 2zm6-8.5a.5.5 0 1 1-.5.5.5.5 0 0 1 .5-.5zM21 1h-4l-6 6 2 2 8-8z" fill="#826550"/></symbol></svg>