<svg xmlns="http://www.w3.org/2000/svg" xmlns:xlink="http://www.w3.org/1999/xlink"><symbol id="model-beard-1" viewBox="0 0 51.5 49.5"><path d="M50.8 0h-.2c-2.3 7.7-2.9 17.1-9.4 20.6-1.2-3.4-4.1-4.9-7.4-6.4s-4.5-2.6-6.6-2.6a2.2 2.2 0 0 0-1.5.3 2.2 2.2 0 0 0-1.5-.3c-2.1.1-4.5 1.7-6.6 2.6s-6.2 3-7.4 6.4C3.8 17 3.1 7.7.8 0H.6A14.5 14.5 0 0 0 0 2.4c0 1.9.5 21.5 1.9 28.4S8 41.6 12.7 44.6s8.5 4.8 13 4.8 9.7-2.8 13-4.8 9.6-7.5 10.8-13.8 1.9-26.5 1.9-28.4a14.5 14.5 0 0 0-.6-2.4zM36.9 28c-.2 1.6-1.7 3.4-3.4 3.5s-4.5-4.4-7.9-4.4-4.9 4.5-7.9 4.4-3.1-1.9-3.4-3.5a7.6 7.6 0 0 1 1.7-5.6c1.1-1.1 2.8-.9 4.7-1.2a8.6 8.6 0 0 0 4.9-1.9 8.6 8.6 0 0 0 4.9 1.9c1.9.3 3.6.1 4.7 1.2a7.6 7.6 0 0 1 1.7 5.6z" fill="#826550"/></symbol><symbol id="model-beard-2" viewBox="0 0 57.7 68.6"><path d="M51.6 22.2c.1-1.7.5-3.5.7-5.4.7-5.4 1.6-11.7-.1-16.8H52c-1.3 3.7-1.3 8.3-2.2 12.4a19.7 19.7 0 0 1-3.2 7.6 4.4 4.4 0 0 1-1.9 1.7c-.7-3.9-4.3-4.9-7.7-6.4s-4-2-6.1-2.2a10.8 10.8 0 0 0-2 .2 10.6 10.6 0 0 0-2-.2c-2.1.1-4 1.3-6.1 2.2s-7 2.4-7.7 6.4a4.4 4.4 0 0 1-1.9-1.8A19.7 19.7 0 0 1 8 12.3c-.9-4-.8-8.6-2.2-12.4h-.3C3.8 5 4.7 11.3 5.4 16.7c.2 1.9.6 3.7.7 5.4.8 11.1-7 23.1-6 28.9.9 7.5 8.4 9.4 14.2 12.4s8.3 5 13.3 5.2h2.6c5-.2 9-2.9 13.3-5.2s13.2-4.7 14.1-12.3c1-5.8-6.8-17.8-6-28.9zM28.9 26a35.9 35.9 0 0 1-7.2-.5c.7-2.1 4-1.6 7.1-1.6h.2c3 0 6.4-.5 7.1 1.6a36 36 0 0 1-7.2.5z" fill="#826550"/></symbol><symbol id="model-beard-3" viewBox="0 0 62.4 78.5"><path d="M62.4 42c0-5.2-2.4-7.8-3.6-10a56 56 0 0 1-4.2-17.6C54.5 9.5 52.9 2 51.7 0c-.9 0-1.5 7.8-2.3 11.6-1.4 7-3.8 8.9-4.4 9-.8-2.8-4.1-7.4-13.7-7.7h-.2c-9.6.4-12.9 4.9-13.7 7.7-.7-.1-3-2-4.4-9C12.2 7.7 11.6 0 10.7 0 9.5 2 7.9 9.5 7.8 14.4A56.1 56.1 0 0 1 3.6 32C2.4 34.2 0 36.7 0 42s5.2 7.2 5.6 11.4c.1 1.2 0 2.3.1 3.4 2 17.5 17.9 21.7 25.4 21.7 7.6 0 23.4-4.2 25.4-21.7.2-1 0-2.1.1-3.4.6-4.2 5.8-7.6 5.8-11.4zM33.2 26.8a20.6 20.6 0 0 0-4.1 0c-1.7.3-5.8 1-5.8-1.1s6.7-2.3 7.8-2.3 7.8 1.2 7.8 2.3-3.9 1.4-5.7 1.1z" fill="#826550"/></symbol><symbol id="model-beard-4" viewBox="0 0 57 97.7"><path d="M51.1 15.3c-.4-5.5-.6-10.9-2.5-15.2-.8 0-1.5 7.3-2.3 10.9-1.5 7.1-3.7 8.3-4.4 8.3-.9-3.9-4.4-4.2-7.8-5.9a11.1 11.1 0 0 0-3.6-1.2 14.6 14.6 0 0 0-2 .1 14.4 14.4 0 0 0-2-.1 11.1 11.1 0 0 0-3.6 1.2c-3.4 1.6-6.9 2-7.8 5.9-.7 0-3-1.1-4.4-8.3C10 7.4 9.2.1 8.4.1 6.5 4.5 6.3 9.9 5.9 15.3 5 38.8 0 51.6 0 62.5c0 26.1 11.7 35.3 28.5 35.3S57 88.6 57 62.5c0-10.9-5-23.7-5.9-47.2zM34.4 25c-2.8 1.2-5.4-.7-5.9-.7h-.1c-.5 0-3.1 1.9-5.9.7-.8-3.6 2.4-4 5.9-3.9s6.8.3 6 3.9z" fill="#826550"/></symbol><symbol id="model-beard-5" viewBox="0 0 44.7 104.8"><path d="M43.4 0h-.1c-2.8 21.5-5.4 22.6-7 22.7s-3.6-1.8-4.9-2.5a15.9 15.9 0 0 0-9.1-2.6 15.9 15.9 0 0 0-9.1 2.5c-1.3.7-3.5 2.6-4.9 2.5s-4.1-1.2-7-22.7C-.8 12.1-.3 50.1 2.5 63.5 5.1 82 12.6 98.6 15.9 103.1c.7 1 3.5 1.6 6.4 1.6s5.7-.5 6.4-1.6C32 98.6 39.5 82 42.1 63.5 45 50.2 45.5 12.2 43.4 0zM22.3 28.1a100.2 100.2 0 0 0-10.1.5c1.1-1.8 9-3.2 10.1-3.4s9 1.7 10.1 3.4a100.2 100.2 0 0 0-10.1-.5z" fill="#826550"/></symbol></svg>